HIERARCHY
ROOT Hips
{
	OFFSET 0.000000 0.000000 0.000000
	CHANNELS 6 Xposition Yposition Zposition Xrotation Yrotation Zrotation
	JOINT LeftUpLeg_virtual
	{
		OFFSET 0.000000 0.000000 0.000000
		CHANNELS 3 Xrotation Yrotation Zrotation
		JOINT LeftUpLeg
		{
			OFFSET 15.427100 -6.655098 0.678600
			CHANNELS 3 Xrotation Yrotation Zrotation
			JOINT LeftLeg
			{
				OFFSET 4.081073 -39.591068 13.024000
				CHANNELS 3 Xrotation Yrotation Zrotation
				JOINT LeftFoot
				{
					OFFSET -4.081074 -37.707932 -15.979700
					CHANNELS 3 Xrotation Yrotation Zrotation
					JOINT LeftToeBase
					{
						OFFSET 5.346399 -15.068900 20.645000
						CHANNELS 3 Xrotation Yrotation Zrotation
						JOINT LeftToe_End
						{
							OFFSET 2.754700 0.931300 11.300900
							CHANNELS 3 Xrotation Yrotation Zrotation
							End Site
							{
								OFFSET 0 0 0
							}
						}
					}
				}
			}
		}
	}
	JOINT RightUpLeg_virtual
	{
		OFFSET 0.000000 0.000000 0.000000
		CHANNELS 3 Xrotation Yrotation Zrotation
		JOINT RightUpLeg
		{
			OFFSET -15.569500 -6.655098 0.678600
			CHANNELS 3 Xrotation Yrotation Zrotation
			JOINT RightLeg
			{
				OFFSET -4.081825 -39.591045 13.023800
				CHANNELS 3 Xrotation Yrotation Zrotation
				JOINT RightFoot
				{
					OFFSET 4.081824 -37.707954 -15.979600
					CHANNELS 3 Xrotation Yrotation Zrotation
					JOINT RightToeBase
					{
						OFFSET -5.346400 -15.068900 20.645000
						CHANNELS 3 Xrotation Yrotation Zrotation
						JOINT RightToe_End
						{
							OFFSET -2.754700 0.931300 11.300900
							CHANNELS 3 Xrotation Yrotation Zrotation
							End Site
							{
								OFFSET 0 0 0
							}
						}
					}
				}
			}
		}
	}
	JOINT Spine_virtual
	{
		OFFSET 0.000000 0.000000 0.000000
		CHANNELS 3 Xrotation Yrotation Zrotation
		JOINT Spine
		{
			OFFSET -0.279200 12.230698 -2.892100
			CHANNELS 3 Xrotation Yrotation Zrotation
			JOINT Spine1
			{
				OFFSET -0.232667 10.192268 -1.242267
				CHANNELS 3 Xrotation Yrotation Zrotation
				JOINT Spine1_split
				{
					OFFSET -0.232667 10.192268 -1.242267
					CHANNELS 3 Xrotation Yrotation Zrotation
					JOINT Spine2
					{
						OFFSET -0.232667 10.192268 -1.242267
						CHANNELS 3 Xrotation Yrotation Zrotation
						JOINT Neck_virtual
						{
							OFFSET 0.000000 0.000000 0.000000
							CHANNELS 3 Xrotation Yrotation Zrotation
							JOINT Neck
							{
								OFFSET -0.418800 17.814194 8.416900
								CHANNELS 3 Xrotation Yrotation Zrotation
								JOINT Head
								{
									OFFSET 0.000000 7.031097 3.806800
									CHANNELS 3 Xrotation Yrotation Zrotation
									JOINT HeadTop_End
									{
										OFFSET 0.000000 24.646606 12.978600
										CHANNELS 3 Xrotation Yrotation Zrotation
										End Site
										{
											OFFSET 0 0 0
										}
									}
								}
							}
						}
						JOINT LeftShoulder_virtual
						{
							OFFSET 0.000000 0.000000 0.000000
							CHANNELS 3 Xrotation Yrotation Zrotation
							JOINT LeftShoulder
							{
								OFFSET 8.476499 7.247704 -3.868750
								CHANNELS 3 Xrotation Yrotation Zrotation
								JOINT LeftShoulder_split
								{
									OFFSET 8.476499 7.247704 -3.868750
									CHANNELS 3 Xrotation Yrotation Zrotation
									JOINT LeftArm
									{
										OFFSET 9.308998 -2.777710 0.208600
										CHANNELS 3 Xrotation Yrotation Zrotation
										JOINT LeftForeArm
										{
											OFFSET 29.972298 0.000000 0.000000
											CHANNELS 3 Xrotation Yrotation Zrotation
											JOINT LeftHand
											{
												OFFSET 26.026505 0.000000 0.000000
												CHANNELS 3 Xrotation Yrotation Zrotation
												End Site
												{
													OFFSET 0 0 0
												}
											}
										}
									}
								}
							}
						}
						JOINT RightShoulder_virtual
						{
							OFFSET 0.000000 0.000000 0.000000
							CHANNELS 3 Xrotation Yrotation Zrotation
							JOINT RightShoulder
							{
								OFFSET -7.570500 7.247704 -3.868750
								CHANNELS 3 Xrotation Yrotation Zrotation
								JOINT RightShoulder_split
								{
									OFFSET -7.570500 7.247704 -3.868750
									CHANNELS 3 Xrotation Yrotation Zrotation
									JOINT RightArm
									{
										OFFSET -9.308998 -2.777710 0.208500
										CHANNELS 3 Xrotation Yrotation Zrotation
										JOINT RightForeArm
										{
											OFFSET -29.972300 0.000000 0.000000
											CHANNELS 3 Xrotation Yrotation Zrotation
											JOINT RightHand
											{
												OFFSET -26.026505 0.000000 0.000000
												CHANNELS 3 Xrotation Yrotation Zrotation
												End Site
												{
													OFFSET 0 0 0
												}
											}
										}
									}
								}
							}
						}
					}
				}
			}
		}
	}
}
MOTION
Frames: 4
Frame Time: 0.03333333
-0.301269 200.029022 1.168900 0.000000 0.000000 0.000000 -4.706469 6.477343 6.656897 -9.602647 18.517546 11.920550 8.408977 -3.581547 -2.341537 -13.862483 -0.485628 -2.708685 -2.157380 -0.698534 -1.918893 0.000000 0.000000 0.000000 -2.991849 2.465723 5.749987 0.636308 -4.321073 -9.660074 13.170223 4.564169 5.281330 -21.260057 -4.683564 3.901679 -8.549309 0.313028 -1.459606 0.000000 0.000000 0.000000 -0.451456 2.757913 5.126462 1.991927 -0.992773 2.035660 10.535812 -0.734454 3.745370 1.512429 1.603233 0.266256 0.000000 0.000000 0.000000 9.616332 -0.908374 3.187131 0.327571 0.380457 -4.254792 7.954601 8.477498 -7.774116 0.000000 0.000000 0.000000 11.132305 -0.986842 2.942021 0.202214 16.189621 -8.717803 -0.865533 -1.844333 -0.801846 1.314021 -12.573230 -60.614917 -0.660437 -48.216266 0.483546 0.000000 0.000000 0.000000 11.267072 -0.454195 3.427602 2.274266 2.631341 7.636823 0.437505 0.829901 -1.083373 -1.872151 7.843321 56.749088 1.582285 38.435117 -1.579185 0.000000 0.000000 0.000000 
-0.479358 200.019379 1.013790 0.000000 0.000000 0.000000 -4.610318 6.725385 6.543962 -9.920011 18.085617 12.051769 8.487731 -3.181883 -2.096750 -13.854280 -0.178048 -2.610670 -2.208880 -0.694198 -2.083512 0.000000 0.000000 0.000000 -2.804455 2.665246 5.550443 0.529884 -4.549768 -9.489146 12.766925 4.484307 5.308819 -21.019713 -4.824784 3.816793 -8.637677 0.292172 -1.371677 0.000000 0.000000 0.000000 -0.312575 2.478639 5.132736 1.971092 -1.043536 2.012534 10.602918 -0.752683 3.651471 1.136630 1.475567 0.013357 0.000000 0.000000 0.000000 9.611267 -0.911164 3.127241 -0.184439 0.392929 -4.466773 8.038712 8.163148 -7.609682 0.000000 0.000000 0.000000 11.153259 -0.960800 2.852354 0.193386 16.044217 -8.257477 -1.202456 -1.298286 -0.963900 0.675419 -12.688459 -60.623427 -0.749358 -48.267656 0.307044 0.000000 0.000000 0.000000 11.331959 -0.496096 3.329818 2.211900 2.497468 7.588858 0.156441 0.635299 -0.923630 -1.997919 7.983221 56.576861 1.505648 39.999992 -1.428426 0.000000 0.000000 0.000000 
-0.691795 199.817780 0.819366 0.000000 0.000000 0.000000 -4.254881 6.895720 6.311595 -10.655003 17.710658 12.211393 8.965469 -2.501835 -1.834967 -14.348283 0.539628 -2.156941 -2.543160 -0.690050 -2.012898 0.000000 0.000000 0.000000 -2.292199 2.780101 5.290020 0.003880 -4.715438 -9.227926 12.997301 4.542260 5.330382 -21.418309 -4.910447 3.918695 -9.039725 0.295092 -1.296778 0.000000 0.000000 0.000000 0.171866 2.188955 5.090036 2.007274 -0.901781 2.065521 10.660972 -0.740790 3.513423 0.889746 1.185300 -0.164068 0.000000 0.000000 0.000000 9.680009 -0.881170 3.013202 -0.951687 0.452122 -4.721834 7.517706 7.551301 -7.083867 0.000000 0.000000 0.000000 11.062892 -0.907453 2.740790 0.123867 15.752481 -7.531292 -1.464231 -0.945155 -1.117772 0.009955 -12.847276 -60.575650 -0.535324 -48.789288 0.275272 0.000000 0.000000 0.000000 11.367921 -0.518674 3.181978 2.153892 2.426140 7.313733 -0.184908 0.151877 -0.737010 -1.405798 9.248493 55.974384 1.493278 42.237156 -1.283126 0.000000 0.000000 0.000000 
-0.859291 199.435486 0.523670 0.000000 0.000000 0.000000 -3.722820 7.054262 6.026819 -11.841138 17.305222 12.169755 10.006733 -1.747986 -1.590202 -15.230330 1.424475 -1.553153 -2.938132 -0.688156 -1.723801 0.000000 0.000000 0.000000 -1.623747 2.913131 5.022794 -0.825024 -4.715654 -8.955390 13.706829 4.624186 5.253587 -22.695071 -4.974540 4.018580 -9.373231 0.311172 -1.276480 0.000000 0.000000 0.000000 0.962248 2.037453 5.019492 2.088829 -0.643225 2.175525 10.729256 -0.750566 3.379965 0.782166 0.861160 -0.349403 0.000000 0.000000 0.000000 9.835056 -0.873748 2.873319 -1.815237 0.532775 -4.947483 6.425587 6.764400 -6.296538 0.000000 0.000000 0.000000 10.927603 -0.879699 2.628999 0.016693 15.287212 -6.712008 -1.526436 -0.869214 -1.251123 -0.754027 -13.030161 -60.325392 -0.162523 -49.518745 0.302203 0.000000 0.000000 0.000000 11.351482 -0.561436 3.021917 2.087423 2.510662 6.911377 -0.372364 -0.420583 -0.685802 -0.166805 11.426643 54.937551 1.555012 44.877860 -1.173371 0.000000 0.000000 0.000000 
